<?xml version="1.0" encoding="utf-8"?>
<!-- Generator: Adobe Illustrator 21.0.0, SVG Export Plug-In . SVG Version: 6.00 Build 0)  -->
<svg version="1.1" id="Layer_1" xmlns="http://www.w3.org/2000/svg" xmlns:xlink="http://www.w3.org/1999/xlink" x="0px" y="0px"
	 viewBox="0 0 150 50" style="enable-background:new 0 0 150 50;" xml:space="preserve">
<style type="text/css">
	.st0{fill:#C1A57B;}
	.st1{fill:#ECECEC;}
</style>
<rect x="12.9" y="38.8" class="st0" width="5.5" height="4.3"/>
<rect x="34.9" y="38.8" class="st0" width="5.5" height="4.3"/>
<path class="st0" d="M27.1,8.9l19,6.2V6.4c0-0.8-0.6-1.4-1.4-1.4H8.6C7.8,5,7.2,5.6,7.2,6.4v8.7l19-6.2C26.5,8.8,26.8,8.8,27.1,8.9z
	"/>
<rect x="22.9" y="39.8" class="st0" width="7.5" height="3.3"/>
<path class="st0" d="M27,17.8c2.6,0.2,4.6,2.3,4.6,5h-10c0-2.6,2-4.8,4.6-5V12L7.2,18.2v23.4c0,0.8,0.6,1.4,1.4,1.4h2.9v-5V28
	c0-0.4,0.3-0.8,0.8-0.8s0.8,0.3,0.8,0.8v9.3h7V43h1.5v-4v-0.8v-3.5h-3.8c-0.4,0-0.8-0.3-0.8-0.8s0.3-0.8,0.8-0.8h4.5h9h4.5
	c0.4,0,0.8,0.3,0.8,0.8s-0.3,0.8-0.8,0.8h-3.8v3.5V39v4h1.5v-5.8h7V28c0-0.4,0.3-0.8,0.8-0.8s0.8,0.3,0.8,0.8v10v5h2.9
	c0.8,0,1.4-0.6,1.4-1.4V18.2L27,12V17.8z"/>
<rect x="22.9" y="34.8" class="st0" width="7.5" height="3.5"/>
<path class="st1" d="M58.3,19.2c0.3,0,0.6,0.3,0.6,0.6v7.9h0.7c0.7,0,1.4,0,2-0.1c0.5,0,1-0.1,1.5-0.2c0.3,0,0.6,0.2,0.7,0.5l0,0.3
	c0,0.3-0.2,0.6-0.5,0.7c-0.6,0.1-1.2,0.1-1.8,0.2c-0.8,0-1.8,0.1-2.8,0.1h-1.1c-0.3,0-0.6-0.3-0.6-0.6v-8.8c0-0.3,0.3-0.6,0.6-0.6
	H58.3z M70,33.5h-0.5c-0.3,0-0.6-0.3-0.6-0.6v-8c0-0.3-0.3-0.6-0.6-0.6h-0.9c-0.3,0-0.6,0.3-0.6,0.6v7.2c0,0.3-0.3,0.6-0.6,0.6h-0.5
	c-0.3,0-0.6-0.3-0.6-0.6V18.6c0-0.3,0.3-0.6,0.6-0.6h0.5c0.3,0,0.6,0.3,0.6,0.6v3.6c0,0.3,0.3,0.6,0.6,0.6h0.9
	c0.3,0,0.6-0.3,0.6-0.6v-3.9c0-0.3,0.3-0.6,0.6-0.6H70c0.3,0,0.6,0.3,0.6,0.6v14.6C70.6,33.2,70.3,33.5,70,33.5z"/>
<path class="st0" d="M81.2,22.3c-0.1,0.2-0.3,0.4-0.5,0.7c-0.3,0.3-0.6,0.6-1,0.9c-0.5,0.3-1,0.7-1.6,1.2c-0.4,0.3-0.9,0.6-1.3,0.9
	c-0.3,0.2-0.8,0.1-1-0.2l-0.3-0.4c-0.3-0.4-0.2-0.9,0.2-1.1c0.5-0.3,0.9-0.6,1.3-0.9c0.7-0.4,1.2-0.8,1.6-1.2
	c0.3-0.3,0.5-0.5,0.7-0.7c0.2-0.2,0.3-0.5,0.4-0.7c0.1-0.3,0.2-0.5,0.2-0.8c0-0.3,0-0.6,0-1v-0.2h-3.6c-0.4,0-0.8-0.3-0.8-0.8v-0.3
	c0-0.4,0.3-0.8,0.8-0.8h9.2c0.4,0,0.8,0.3,0.8,0.8v0.3c0,0.4-0.3,0.8-0.8,0.8h-3.4v0.1c0,0.3,0,0.6,0,0.9c0,0.3,0,0.5,0.1,0.7
	s0.2,0.4,0.3,0.6c0.1,0.2,0.4,0.4,0.6,0.6c0.5,0.4,1.1,0.9,1.7,1.3c0.4,0.3,0.8,0.5,1.2,0.8c0.4,0.2,0.5,0.8,0.2,1.1l-0.3,0.3
	c-0.2,0.3-0.7,0.4-1,0.2c-0.4-0.2-0.8-0.5-1.1-0.8c-0.6-0.4-1.1-0.8-1.6-1.1c-0.3-0.2-0.6-0.4-0.8-0.7
	C81.4,22.7,81.3,22.5,81.2,22.3L81.2,22.3z M91.5,27.6v7.2c0,0.4-0.3,0.8-0.8,0.8H79.4c-0.4,0-0.8-0.3-0.8-0.8v-7.2
	c0-0.4,0.3-0.8,0.8-0.8H80c0.4,0,0.8,0.3,0.8,0.8v1c0,0.4,0.3,0.8,0.8,0.8h6.9c0.4,0,0.8-0.3,0.8-0.8v-1c0-0.4,0.3-0.8,0.8-0.8h0.7
	C91.1,26.8,91.5,27.1,91.5,27.6z M89.3,32.9v-1.1c0-0.4-0.3-0.8-0.8-0.8h-6.9c-0.4,0-0.8,0.3-0.8,0.8v1.1c0,0.4,0.3,0.8,0.8,0.8h6.9
	C88.9,33.7,89.3,33.3,89.3,32.9z M89.3,25.1v-8.6c0-0.4,0.3-0.8,0.8-0.8h0.7c0.4,0,0.8,0.3,0.8,0.8v8.6c0,0.4-0.3,0.8-0.8,0.8H90
	C89.6,25.9,89.3,25.5,89.3,25.1z"/>
<path class="st1" d="M101.4,32.4v-5.2c0-0.3-0.3-0.6-0.6-0.6h-5.4c-0.3,0-0.6-0.3-0.6-0.6v-0.2c0-0.3,0.3-0.6,0.6-0.6h3.4
	c0.3,0,0.5-0.2,0.6-0.4c0.1-0.3,0.1-0.6,0.2-0.9c0.1-0.5,0.2-0.9,0.2-1.3c0.1-0.4,0.1-0.8,0.1-1.2c0-0.4,0-0.7,0-0.9v-0.7h-3.2
	c-0.3,0-0.6-0.3-0.6-0.6v-0.3c0-0.3,0.3-0.6,0.6-0.6h4.3c0.3,0,0.6,0.3,0.6,0.6v0.6c0,1-0.1,1.9-0.2,2.9c-0.1,0.7-0.2,1.4-0.3,2
	c-0.1,0.4,0.2,0.7,0.6,0.7h3.2c0.3,0,0.5-0.2,0.6-0.5c0.2-0.8,0.3-1.5,0.3-2.1c0.1-0.8,0.1-1.5,0.1-2.1v-0.7h-3
	c-0.3,0-0.6-0.3-0.6-0.6v-0.3c0-0.3,0.3-0.6,0.6-0.6h4.1c0.3,0,0.6,0.3,0.6,0.6v0.6c0,0.9,0,1.8-0.1,2.7c0,0.7-0.1,1.5-0.3,2.2
	c-0.1,0.4,0.2,0.7,0.6,0.7h1.2c0.3,0,0.6,0.3,0.6,0.6v0.2c0,0.3-0.3,0.6-0.6,0.6h-5.4c-0.3,0-0.6,0.3-0.6,0.6v5.2
	c0,0.3-0.3,0.6-0.6,0.6H102C101.7,33,101.4,32.7,101.4,32.4z"/>
<path class="st1" d="M112.2,28.7v-9c0-0.3,0.3-0.6,0.6-0.6h6.5c0.3,0,0.6,0.3,0.6,0.6v9c0,0.3-0.3,0.6-0.6,0.6h-6.5
	C112.4,29.3,112.2,29.1,112.2,28.7z M114.5,27.9h3c0.3,0,0.6-0.3,0.6-0.6v-6.1c0-0.3-0.3-0.6-0.6-0.6h-3c-0.3,0-0.6,0.3-0.6,0.6v6.1
	C113.9,27.6,114.2,27.9,114.5,27.9z M122.8,32.9V18.3c0-0.3,0.3-0.6,0.6-0.6h0.5c0.3,0,0.6,0.3,0.6,0.6v14.6c0,0.3-0.3,0.6-0.6,0.6
	h-0.5C123.1,33.5,122.8,33.2,122.8,32.9z"/>
<path class="st1" d="M128.3,29.2c-0.2-0.3-0.1-0.7,0.2-0.9c0.7-0.4,1.3-0.8,1.8-1.1c0.7-0.4,1.2-0.8,1.6-1.1c0.4-0.3,0.8-0.7,1-1
	c0.2-0.3,0.4-0.6,0.6-0.9c0.1-0.3,0.2-0.6,0.2-0.9c0-0.3,0-0.7,0-1.1v-1c0-0.3-0.3-0.6-0.6-0.6h-4.4c-0.3,0-0.6-0.3-0.6-0.6v-0.2
	c0-0.3,0.3-0.6,0.6-0.6h6.1c0.3,0,0.6,0.3,0.6,0.6v2.4c0,0.5,0,1,0,1.4c0,0.4-0.1,0.8-0.3,1.2c-0.1,0.4-0.4,0.7-0.6,1.1
	c-0.3,0.4-0.7,0.7-1.2,1.2c-0.5,0.4-1.1,0.9-1.9,1.4c-0.6,0.4-1.4,0.9-2.3,1.4c-0.3,0.2-0.6,0.1-0.8-0.2L128.3,29.2z M139.1,32.9
	V18.3c0-0.3,0.3-0.6,0.6-0.6h0.5c0.3,0,0.6,0.3,0.6,0.6v14.6c0,0.3-0.3,0.6-0.6,0.6h-0.5C139.3,33.5,139.1,33.2,139.1,32.9z"/>
</svg>
